<?xml version="1.0" encoding="UTF-8" standalone="no"?>
<svg
   xmlns:dc="http://purl.org/dc/elements/1.1/"
   xmlns:cc="http://creativecommons.org/ns#"
   xmlns:rdf="http://www.w3.org/1999/02/22-rdf-syntax-ns#"
   xmlns:svg="http://www.w3.org/2000/svg"
   xmlns="http://www.w3.org/2000/svg"
   width="288.32239mm"
   height="29.999489mm"
   viewBox="0 0 288.32239 29.999489"
   version="1.1"
   id="svg1213">
  <defs
     id="defs1207" />
  <metadata
     id="metadata1210">
    <rdf:RDF>
      <cc:Work
         rdf:about="">
        <dc:format>image/svg+xml</dc:format>
        <dc:type
           rdf:resource="http://purl.org/dc/dcmitype/StillImage" />
        <dc:title></dc:title>
      </cc:Work>
    </rdf:RDF>
  </metadata>
  <g
     id="layer1"
     transform="translate(57.849628,-41.87564)"
     style="stroke:#ffffff">
    <path
       style="fill:#000000;stroke-width:0.264583;stroke:#ffffff"
       d="m 76.749767,71.71741 c -5.329389,-0.89212 -9.944119,-4.91896 -11.668035,-10.18159 -0.828887,-2.53036 -0.895977,-6.96823 -0.139306,-9.21479 1.256239,-3.72978 3.936368,-7.06494 6.9474,-8.64537 2.774852,-1.45646 4.182181,-1.80002 7.373482,-1.80002 4.439343,0 7.661085,1.31241 10.739742,4.37496 4.933696,4.90789 5.818973,12.22759 2.226006,18.40519 -1.053606,1.81153 -3.680714,4.30842 -5.61077,5.33267 -2.863469,1.5196 -6.897291,2.22632 -9.868519,1.72895 z m 6.28837,-5.76398 c 2.002631,-0.89873 4.030636,-2.9517 5.036884,-5.09889 0.617794,-1.31829 0.713287,-1.85856 0.713287,-4.0356 0,-2.19802 -0.09294,-2.71281 -0.740428,-4.10104 -1.493729,-3.2026 -4.775661,-5.57913 -8.123915,-5.88274 -3.713374,-0.33672 -7.483086,1.96962 -9.321078,5.70272 -0.7929,1.61044 -0.864578,1.96488 -0.864578,4.27531 0,2.17966 0.0956,2.72326 0.709099,4.0322 1.26501,2.69898 4.024984,5.08624 6.699234,5.79455 1.509223,0.39974 4.159051,0.091 5.891495,-0.68651 z m -140.870099,5.03244 c 0.214516,-0.55902 21.028752,-27.70427 21.673115,-28.26538 0.451508,-0.39316 0.946171,-0.45973 2.949,-0.39687 l 2.406491,0.0755 v 14.41979 14.4198 l -2.115779,0.0785 c -1.163678,0.0431 -2.370699,0.0145 -2.682267,-0.0637 -0.338394,-0.0849 -2.078331,-2.1178 -4.321261,-5.04878 l -3.754773,-4.9066 -2.89689,3.77971 c -1.593289,2.07883 -3.37643,4.34524 -3.962535,5.03647 l -1.065645,1.25677 h -3.188628 c -2.68253,0 -3.16517,-0.0611 -3.040828,-0.38516 z m 21.869231,-14.05025 c 0,-2.99176 -0.09693,-5.37967 -0.215392,-5.30645 -0.118466,0.0732 -1.083997,1.27366 -2.145625,2.66766 l -1.930232,2.53455 2.079479,2.75889 c 1.143713,1.51739 2.109244,2.76475 2.145624,2.77191 0.03638,0.007 0.06615,-2.43479 0.06615,-5.42656 z m 11.237701,14.11467 c -0.07174,-0.1874 -0.09949,-6.71056 -0.06168,-14.49593 l 0.06876,-14.15521 2.115778,-0.0785 c 1.16368,-0.0431 2.373024,-0.0139 2.687436,0.065 0.358151,0.0899 3.445359,3.85689 8.265917,10.08605 l 7.6942603,9.94257 0.06935,-10.0076 0.06935,-10.0076 h 2.5135419 2.5135416 v 14.41979 14.4198 l -2.3132997,0.0764 c -1.2723148,0.042 -2.5301468,-0.0396 -2.7951848,-0.18148 -0.265036,-0.14184 -3.867489,-4.63741 -8.0054513,-9.99014 l -7.523564,-9.73225 -0.132292,9.91372 -0.132291,9.91373 -2.451868,0.0761 c -1.812639,0.0563 -2.485874,-0.0127 -2.582306,-0.26458 z m 32.0202446,0.0148 C 7.2203587,70.86957 7.1900586,64.33977 7.2278782,56.5544 l 0.068765,-14.15521 h 6.2177088 c 6.814769,0 7.602478,0.13207 10.497888,1.7601 5.307851,2.98451 8.337883,9.31536 7.262108,15.17324 -0.669663,3.64649 -3.319081,7.48529 -6.653548,9.64046 -3.077337,1.98898 -4.099451,2.20505 -11.039112,2.33361 -4.9840278,0.0923 -6.1761847,0.0465 -6.2864736,-0.24152 z M 20.966679,65.08462 c 2.038088,-1.00378 3.437718,-2.43876 4.418158,-4.52975 0.582354,-1.24198 0.697222,-1.85839 0.697222,-3.74148 0,-2.01025 -0.09344,-2.44433 -0.862457,-4.00642 -1.005001,-2.04145 -2.441514,-3.44147 -4.529748,-4.4147 -1.307034,-0.60914 -1.895158,-0.70473 -4.860398,-0.78994 l -3.373438,-0.0969 v 9.31355 9.31356 l 3.379759,-0.0927 c 3.188207,-0.0875 3.479005,-0.1416 5.130902,-0.95518 z m 15.956206,5.96567 c -0.07174,-0.1874 -0.09949,-6.71056 -0.06167,-14.49593 l 0.06876,-14.15521 11.227379,-0.0691 c 8.806333,-0.0542 11.273049,0.003 11.439176,0.26458 0.304284,0.47933 0.269422,5.85749 -0.0433,6.68001 -0.144762,0.38076 -1.735148,2.62093 -3.534193,4.97816 l -3.270991,4.28589 4.724821,6.16043 c 2.59865,3.38823 4.724818,6.2755 4.724818,6.41614 0,0.43055 -5.87411,0.32125 -6.505575,-0.12104 -0.747252,-0.5234 -9.501717,-11.99287 -9.501717,-12.44847 0,-0.20369 1.666875,-2.54391 3.704167,-5.2005 2.037292,-2.65659 3.859747,-5.04539 4.049898,-5.30846 0.330708,-0.45753 0.08072,-0.47831 -5.751963,-0.47831 h -6.097696 l -0.06887,11.8401 -0.06887,11.84011 -2.451867,0.0761 c -1.812639,0.0563 -2.485874,-0.0127 -2.582307,-0.26458 z m 62.177082,0 c -0.07174,-0.1874 -0.09949,-6.71056 -0.06167,-14.49593 l 0.06876,-14.15521 2.115783,-0.0785 c 1.16367,-0.0431 2.37302,-0.0139 2.68743,0.065 0.35815,0.0899 3.44536,3.85689 8.26592,10.08605 l 7.69426,9.94257 0.0693,-10.0076 0.0694,-10.0076 2.40649,-0.0755 c 2.00206,-0.0628 2.49812,0.004 2.95173,0.39687 0.65462,0.56719 21.44461,27.67702 21.66461,28.25032 0.13184,0.34357 -0.29696,0.40022 -3.02927,0.40022 h -3.18285 l -1.16709,-1.38906 c -0.6419,-0.76399 -4.13368,-5.25632 -7.75952,-9.98297 l -6.59243,-8.5939 -0.13229,9.91682 -0.13229,9.91682 -2.3133,0.0764 c -1.27232,0.042 -2.53015,-0.0396 -2.79519,-0.18148 -0.26504,-0.14184 -3.86749,-4.63741 -8.00545,-9.99014 l -7.52357,-9.73225 -0.13229,9.91372 -0.13229,9.91373 -2.45187,0.0761 c -1.812636,0.0563 -2.485871,-0.0127 -2.582304,-0.26458 z m 51.589923,-0.01 c -0.0696,-0.1819 -0.0957,-6.70057 -0.0579,-14.48594 l 0.0688,-14.15521 9.32656,-0.0695 9.32656,-0.0695 v 2.64922 2.64922 h -6.74687 -6.74688 v 3.30181 3.30181 l 5.35782,0.0716 5.35781,0.0716 v 2.51354 2.51355 l -5.35781,0.0716 -5.35782,0.0716 v 3.30182 3.30181 h 7.26043 c 3.99323,0 7.32257,0.10055 7.39853,0.22345 0.14655,0.23714 -2.7478,4.1776 -3.47979,4.73749 -0.32362,0.24753 -2.41843,0.33073 -8.32762,0.33073 -6.07228,0 -7.92447,-0.0764 -8.02184,-0.33073 z m 23.29282,0.0247 c -0.0748,-0.19551 -0.10515,-6.72531 -0.0673,-14.51068 l 0.0688,-14.15521 h 6.21771 c 6.81477,0 7.60248,0.13207 10.49789,1.7601 5.30785,2.98451 8.33788,9.31536 7.26211,15.17324 -0.66967,3.64649 -3.31909,7.48529 -6.65355,9.64046 -3.07734,1.98898 -4.09945,2.20505 -11.03911,2.33361 -4.98403,0.0923 -6.17619,0.0465 -6.28648,-0.24152 z m 13.67147,-5.98043 c 2.03809,-1.00378 3.43772,-2.43876 4.41816,-4.52975 0.58235,-1.24198 0.69722,-1.85839 0.69722,-3.74148 0,-2.01025 -0.0935,-2.44434 -0.86246,-4.00643 -1.005,-2.04144 -2.44151,-3.44147 -4.52975,-4.41469 -1.30703,-0.60915 -1.89516,-0.70473 -4.8604,-0.78994 l -3.37343,-0.0969 v 9.31355 9.31356 l 3.37975,-0.0927 c 3.18821,-0.0875 3.47901,-0.1416 5.13091,-0.95518 z m 15.68779,5.95569 c -0.0696,-0.1819 -0.0957,-6.70057 -0.0578,-14.48594 l 0.0688,-14.15521 2.40649,-0.0755 c 2.00314,-0.0629 2.49724,0.004 2.94794,0.39687 0.73191,0.63858 21.76536,28.08379 21.76536,28.40023 0,0.14322 -1.33614,0.25031 -3.12309,0.25031 h -3.12311 l -0.8041,-0.8599 c -0.44225,-0.47294 -2.15156,-2.64583 -3.79846,-4.82864 -1.64693,-2.18282 -3.07668,-4.06418 -3.17725,-4.1808 -0.1006,-0.11663 -1.71662,1.78837 -3.59119,4.23333 -4.66902,6.0897 -4.10673,5.63601 -6.98533,5.63601 -1.67735,0 -2.43976,-0.0997 -2.52818,-0.33073 z m 8.7109,-13.22446 0.74834,-0.98747 -1.92907,-2.53304 c -1.06101,-1.39318 -2.02602,-2.59295 -2.14448,-2.66616 -0.11848,-0.0732 -0.21539,2.32699 -0.21539,5.33379 v 5.46692 l 1.39612,-1.81328 c 0.76788,-0.9973 1.73289,-2.25764 2.14448,-2.80076 z"
       id="path1269" />
  </g>
</svg>
