<?xml version="1.0" encoding="UTF-8" standalone="no"?>
<svg
   xmlns:dc="http://purl.org/dc/elements/1.1/"
   xmlns:cc="http://creativecommons.org/ns#"
   xmlns:rdf="http://www.w3.org/1999/02/22-rdf-syntax-ns#"
   xmlns:svg="http://www.w3.org/2000/svg"
   xmlns="http://www.w3.org/2000/svg"
   version="1.1"
   width="46.386818"
   height="49.854378"
   id="svg2">
  <metadata
     id="metadata16">
    <rdf:RDF>
      <cc:Work
         rdf:about="">
        <dc:format>image/svg+xml</dc:format>
        <dc:type
           rdf:resource="http://purl.org/dc/dcmitype/StillImage" />
        <dc:title></dc:title>
      </cc:Work>
    </rdf:RDF>
  </metadata>
  <defs
     id="defs14" />
  <path
     style="opacity:0.997;mix-blend-mode:normal;fill:#000000;fill-opacity:1;stroke-width:0.454;stroke-miterlimit:4;stroke-dasharray:none"
     d="m 5.2455956,49.854377 c -4.60078604,0 -5.42855204,-0.104859 -5.21529704,-0.660581 C 0.16972056,48.830474 8.3809596,37.956656 18.277502,25.029765 28.174042,12.102873 36.689918,1.1617277 37.201666,0.71609774 c 0.774377,-0.674313 1.622769,-0.788489 5.057802,-0.680676 l 4.127351,0.129542 V 24.896222 49.627477 l -3.628753,0.134547 c -1.995814,0.074 -4.065963,0.02483 -4.600332,-0.109311 -0.580376,-0.145662 -3.564528,-3.632216 -7.411355,-8.659107 l -6.439778,-8.415261 -4.968432,6.482531 c -2.732635,3.565391 -5.790884,7.452498 -6.796106,8.638005 l -1.82768,2.155478 z M 37.424576,34.403383 c 0.0624,0.01235 0.113455,-4.175889 0.113455,-9.307039 0,-5.131156 -0.166237,-9.226627 -0.369415,-9.101058 -0.203179,0.125577 -1.859154,2.184456 -3.679943,4.575296 l -3.310524,4.346977 3.566495,4.731751 c 1.961573,2.602462 3.617547,4.741795 3.679942,4.754073 z"
     id="path124" />
</svg>
